<svg xmlns="http://www.w3.org/2000/svg" viewBox="0 0 800 400" width="100%" height="100%" role="img" aria-label="Physics diagram">
  <rect width="800" height="400" fill="white" />
  
    <line x1="60" y1="240" x2="740" y2="240" stroke="black" stroke-width="2" />
    <polygon points="740,240 730,235 730,245" fill="black" />
    <text x="745" y="245" font-family="serif" font-style="italic" font-size="14" fill="black">x</text>

    <line x1="138.46153846153845" y1="240" x2="138.46153846153845" y2="248" stroke="black" stroke-width="1.5" />
    <text x="138.46153846153845" y="268" font-family="serif" font-style="italic" font-size="13" fill="black" text-anchor="middle">x = 0</text>

    <line x1="138.46153846153845" y1="240" x2="138.46153846153845" y2="248" stroke="black" stroke-width="1.5" />

    <line x1="661.5384615384615" y1="240" x2="661.5384615384615" y2="248" stroke="black" stroke-width="1.5" />

    <rect x="120.46153846153845" y="204" width="36" height="36" fill="white" stroke="black" stroke-width="2" />
    <circle cx="148.46153846153845" cy="212" r="2.5" fill="black" />

    <line x1="156.46153846153845" y1="198" x2="236.46153846153845" y2="198" stroke="black" stroke-width="2.5" />
    <polygon points="236.46153846153845,198 226.46153846153845,193 226.46153846153845,203" fill="black" />

    <line x1="138.46153846153845" y1="290" x2="661.5384615384615" y2="290" stroke="black" stroke-width="2" />
    <polygon points="661.5384615384615,290 653.5384615384615,286 653.5384615384615,294" fill="black" />

    <text x="138.46153846153845" y="196" font-family="serif" font-style="italic" font-size="14" fill="black" text-anchor="middle">xi</text>

    <text x="661.5384615384615" y="270" font-family="serif" font-style="italic" font-size="14" fill="black" text-anchor="middle">xf</text>

    <text x="196.46153846153845" y="186" font-family="serif" font-style="italic" font-size="14" fill="black" text-anchor="middle">v &gt; 0</text>
</svg>