<svg version="1.1" viewBox="0.0 0.0 960.0 540.0" fill="none" stroke="none" stroke-linecap="square" stroke-miterlimit="10" xmlns:xlink="http://www.w3.org/1999/xlink" xmlns="http://www.w3.org/2000/svg"><clipPath id="g3f467bb5915_0_152.0"><path d="m0 0l960.0 0l0 540.0l-960.0 0l0 -540.0z" clip-rule="nonzero"/></clipPath><g clip-path="url(#g3f467bb5915_0_152.0)"><path fill="#ffffff" d="m0 0l960.0 0l0 540.0l-960.0 0z" fill-rule="evenodd"/><path fill="#000000" fill-opacity="0.0" d="m176.3307 263.90552l623.874 0" fill-rule="evenodd"/><path stroke="#000000" stroke-width="2.0" stroke-linejoin="round" stroke-linecap="butt" d="m176.3307 263.90552l623.874 0" fill-rule="evenodd"/><path fill="#ffffff" d="m704.084 211.20409l51.18109 0l0 51.181107l-51.18109 0z" fill-rule="evenodd"/><path stroke="#000000" stroke-width="2.0" stroke-linejoin="round" stroke-linecap="butt" d="m704.084 211.20409l51.18109 0l0 51.181107l-51.18109 0z" fill-rule="evenodd"/><path fill="#000000" fill-opacity="0.0" d="m249.60104 263.90552l0 8.0" fill-rule="evenodd"/><path stroke="#000000" stroke-width="2.0" stroke-linejoin="round" stroke-linecap="butt" d="m249.60104 263.90552l0 8.0" fill-rule="evenodd"/><path fill="#000000" fill-opacity="0.0" d="m729.6725 263.90552l0 8.0" fill-rule="evenodd"/><path stroke="#000000" stroke-width="2.0" stroke-linejoin="round" stroke-linecap="butt" d="m729.6725 263.90552l0 8.0" fill-rule="evenodd"/><path fill="#000000" fill-opacity="0.0" d="m687.29395 142.17323l84.75592 0l0 38.771652l-84.75592 0z" fill-rule="evenodd"/><path fill="#000000" d="m710.01086 165.61136l2.734375 -3.5l-2.703125 -3.515625l-0.8125 -0.1875l0 -0.765625l3.953125 0l0 0.765625l-1.109375 0.1875l1.4375 2.0625l0.46875 0.6875l0.421875 -0.6875l1.53125 -2.0625l-1.171875 -0.1875l0 -0.765625l3.296875 0l0 0.765625l-0.90625 0.1875l-2.59375 3.3125l2.828125 3.71875l0.84375 0.125l0 0.78125l-4.03125 0l0 -0.78125l1.0625 -0.140625l-1.46875 -2.171875l-0.484375 -0.71875l-0.4375 0.703125l-1.53125 2.1875l1.34375 0.140625l0 0.78125l-3.640625 0l0 -0.78125l0.96875 -0.140625z" fill-rule="nonzero"/><path fill="#000000" d="m718.7491 172.53323l0 -0.53125l0.859375 -0.09375l0 -4.46875l-0.796875 -0.1875l0 -0.578125l1.65625 -0.1875l0.015625 0l0.25 0.1875l0 5.25l0.84375 0.078125l0 0.53125l-2.828125 0zm1.328125 -6.96875q-0.328125 0 -0.515625 -0.203125q-0.171875 -0.21875 -0.171875 -0.5q0 -0.296875 0.1875 -0.546875q0.203125 -0.25 0.578125 -0.25l0.015625 0q0.34375 0 0.515625 0.203125q0.171875 0.203125 0.171875 0.484375q0 0.3125 -0.1875 0.5625q-0.1875 0.25 -0.578125 0.25l-0.015625 0z" fill-rule="nonzero"/><path fill="#000000" d="m734.6031 158.61136l0 1.15625l-7.234375 0l0 -1.15625l7.234375 0zm0 4.40625l0 1.15625l-7.234375 0l0 -1.15625l7.234375 0zm10.573914 3.671875q-1.078125 0 -1.875 -0.46875q-0.796875 -0.46875 -1.328125 -1.296875q-0.515625 -0.84375 -0.765625 -1.96875q-0.25 -1.125 -0.25 -2.421875q0.015625 -1.921875 0.609375 -3.265625q0.59375 -1.34375 1.609375 -2.046875q1.015625 -0.71875 2.28125 -0.71875q1.109375 0 1.890625 0.4375q0.796875 0.4375 1.296875 1.25q0.5 0.796875 0.734375 1.90625q0.25 1.09375 0.25 2.421875q-0.015625 1.90625 -0.578125 3.28125q-0.546875 1.375 -1.546875 2.140625q-1.0 0.75 -2.328125 0.75zm0.109375 -0.84375q0.90625 0 1.4375 -0.578125q0.53125 -0.578125 0.765625 -1.734375q0.234375 -1.15625 0.234375 -2.875q0 -1.296875 -0.140625 -2.28125q-0.140625 -1.0 -0.421875 -1.671875q-0.28125 -0.6875 -0.734375 -1.03125q-0.453125 -0.34375 -1.109375 -0.34375q-0.65625 0 -1.125 0.3125q-0.46875 0.3125 -0.765625 0.953125q-0.296875 0.625 -0.4375 1.578125q-0.140625 0.953125 -0.140625 2.265625q0 1.21875 0.140625 2.21875q0.140625 0.984375 0.4375 1.703125q0.296875 0.71875 0.75 1.109375q0.46875 0.375 1.109375 0.375z" fill-rule="nonzero"/><path fill="#000000" fill-opacity="0.0" d="m678.91864 265.4252l101.51178 0l0 38.771637l-101.51178 0z" fill-rule="evenodd"/><path fill="#000000" d="m711.7398 288.8633l2.734375 -3.5l-2.703125 -3.515625l-0.8125 -0.1875l0 -0.765625l3.953125 0l0 0.765625l-1.109375 0.1875l1.4375 2.0625l0.46875 0.6875l0.421875 -0.6875l1.53125 -2.0625l-1.171875 -0.1875l0 -0.765625l3.296875 0l0 0.765625l-0.90625 0.1875l-2.59375 3.3125l2.828125 3.71875l0.84375 0.125l0 0.78125l-4.03125 0l0 -0.78125l1.0625 -0.140625l-1.46875 -2.171875l-0.484375 -0.71875l-0.4375 0.703125l-1.53125 2.1875l1.34375 0.140625l0 0.78125l-3.640625 0l0 -0.78125l0.96875 -0.140625zm21.139587 -7.0l0 1.15625l-7.234375 0l0 -1.15625l7.234375 0zm0 4.40625l0 1.15625l-7.234375 0l0 -1.15625l7.234375 0zm10.573914 3.671875q-1.078125 0 -1.875 -0.46875q-0.796875 -0.46875 -1.328125 -1.296875q-0.515625 -0.84375 -0.765625 -1.96875q-0.25 -1.125 -0.25 -2.421875q0.015625 -1.921875 0.609375 -3.265625q0.59375 -1.34375 1.609375 -2.046875q1.015625 -0.71875 2.28125 -0.71875q1.109375 0 1.890625 0.4375q0.796875 0.4375 1.296875 1.25q0.5 0.796875 0.734375 1.90625q0.25 1.09375 0.25 2.421875q-0.015625 1.90625 -0.578125 3.28125q-0.546875 1.375 -1.546875 2.140625q-1.0 0.75 -2.328125 0.75zm0.109375 -0.84375q0.90625 0 1.4375 -0.578125q0.53125 -0.578125 0.765625 -1.734375q0.234375 -1.15625 0.234375 -2.875q0 -1.296875 -0.140625 -2.28125q-0.140625 -1.0 -0.421875 -1.671875q-0.28125 -0.6875 -0.734375 -1.03125q-0.453125 -0.34375 -1.109375 -0.34375q-0.65625 0 -1.125 0.3125q-0.46875 0.3125 -0.765625 0.953125q-0.296875 0.625 -0.4375 1.578125q-0.140625 0.953125 -0.140625 2.265625q0 1.21875 0.140625 2.21875q0.140625 0.984375 0.4375 1.703125q0.296875 0.71875 0.75 1.109375q0.46875 0.375 1.109375 0.375z" fill-rule="nonzero"/><path fill="#000000" fill-opacity="0.0" d="m704.084 236.79463l-78.70868 0" fill-rule="evenodd"/><path stroke="#000000" stroke-width="2.0" stroke-linejoin="round" stroke-linecap="butt" d="m704.084 236.79465l-66.70868 0" fill-rule="evenodd"/><path fill="#000000" stroke="#000000" stroke-width="2.0" stroke-linecap="butt" d="m637.3753 233.49118l-9.076172 3.3034668l9.076172 3.3034515z" fill-rule="evenodd"/><path fill="#000000" fill-opacity="0.0" d="m597.67194 190.98294l101.51178 0l0 38.771652l-101.51178 0z" fill-rule="evenodd"/><path fill="#000000" d="m613.98737 215.46794l-3.171875 -8.046875l-0.734375 -0.203125l0 -0.765625l3.71875 0l0 0.765625l-1.109375 0.203125l1.578125 4.609375l0.671875 2.03125l0.578125 -1.96875l1.609375 -4.671875l-1.078125 -0.203125l0 -0.765625l3.25 0l0 0.765625l-0.828125 0.203125l-3.09375 8.046875l-1.390625 0zm17.981567 -8.046875l0 1.15625l-7.234375 0l0 -1.15625l7.234375 0zm0 4.40625l0 1.15625l-7.234375 0l0 -1.15625l7.234375 0zm13.370789 -2.21875l0 1.1875l-6.40625 0l0 -1.1875l6.40625 0zm2.1117554 5.96875q-0.375 0 -0.828125 -0.0625q-0.4375 -0.046875 -0.75 -0.125l0 -0.921875q0.28125 0.078125 0.625 0.125q0.34375 0.03125 0.625 0.03125q1.3125 0 2.21875 -0.390625q0.90625 -0.40625 1.375 -1.0625q0.46875 -0.65625 0.46875 -1.46875q0 -0.703125 -0.28125 -1.1875q-0.265625 -0.484375 -0.859375 -0.75q-0.59375 -0.265625 -1.53125 -0.28125q-0.078125 0.03125 -0.296875 0.09375q-0.21875 0.046875 -0.4375 0.109375q-0.203125 0.046875 -0.28125 0.0625l-0.28125 -0.84375q0.328125 -0.0625 0.640625 -0.15625q0.328125 -0.109375 0.625 -0.234375q0.65625 -0.265625 1.15625 -0.578125q0.515625 -0.328125 0.8125 -0.75q0.296875 -0.421875 0.296875 -1.0q0 -0.65625 -0.265625 -1.03125q-0.25 -0.375 -0.703125 -0.53125q-0.453125 -0.15625 -1.046875 -0.15625q-0.59375 0 -1.09375 0.125q-0.5 0.125 -0.90625 0.328125q-0.390625 0.203125 -0.6875 0.4375l-0.421875 -0.75q0.25 -0.25 0.765625 -0.546875q0.53125 -0.3125 1.25 -0.515625q0.734375 -0.21875 1.578125 -0.21875q0.90625 0 1.65625 0.265625q0.75 0.25 1.203125 0.8125q0.453125 0.5625 0.453125 1.484375q0 0.59375 -0.265625 1.09375q-0.25 0.484375 -0.6875 0.875q-0.4375 0.375 -0.984375 0.671875q-0.53125 0.28125 -1.09375 0.484375q1.09375 -0.09375 1.890625 0.21875q0.8125 0.296875 1.265625 0.890625q0.453125 0.59375 0.46875 1.359375q0 0.890625 -0.390625 1.640625q-0.390625 0.734375 -1.140625 1.28125q-0.734375 0.546875 -1.796875 0.859375q-1.046875 0.3125 -2.34375 0.3125zm11.139343 -0.234375l0 -0.796875l0.96875 -0.125l0 -6.71875l-1.140625 -0.28125l0 -0.875l2.28125 -0.28125l0.28125 0.1875l0.09375 0.640625l-0.015625 0.515625q0.359375 -0.328125 0.921875 -0.640625q0.5625 -0.3125 1.1875 -0.515625q0.640625 -0.203125 1.171875 -0.203125q0.84375 0 1.359375 0.296875q0.53125 0.28125 0.796875 0.90625q0.3125 -0.28125 0.828125 -0.546875q0.53125 -0.28125 1.140625 -0.46875q0.625 -0.1875 1.203125 -0.1875q0.75 0 1.25 0.21875q0.5 0.21875 0.796875 0.671875q0.296875 0.4375 0.421875 1.125q0.125 0.6875 0.125 1.65625l0 4.5l1.140625 0.125l0 0.796875l-3.796875 0l0 -0.796875l0.96875 -0.125l0 -4.453125q0 -0.859375 -0.125 -1.4375q-0.125 -0.578125 -0.5 -0.859375q-0.375 -0.28125 -1.09375 -0.28125q-0.390625 0 -0.78125 0.125q-0.390625 0.109375 -0.75 0.296875q-0.34375 0.1875 -0.59375 0.375q0.046875 0.234375 0.078125 0.515625q0.03125 0.265625 0.046875 0.578125q0.015625 0.3125 0.015625 0.65625l0 4.484375l1.125 0.125l0 0.796875l-3.875 0l0 -0.796875l1.046875 -0.125l0 -4.484375q0 -0.875 -0.109375 -1.4375q-0.109375 -0.5625 -0.453125 -0.828125q-0.328125 -0.265625 -1.015625 -0.265625q-0.609375 0 -1.265625 0.3125q-0.640625 0.296875 -1.0625 0.625l0 6.078125l1.046875 0.125l0 0.796875l-3.71875 0zm20.440552 -12.5l-3.71875 15.328125l-1.375 0l3.71875 -15.328125l1.375 0zm3.6296387 12.671875q-0.609375 0 -1.21875 -0.125q-0.59375 -0.109375 -1.09375 -0.265625q-0.484375 -0.15625 -0.734375 -0.265625l0 -2.046875l1.046875 0l0.28125 1.25q0.109375 0.140625 0.375 0.296875q0.265625 0.140625 0.625 0.234375q0.375 0.09375 0.765625 0.09375q0.640625 0 1.03125 -0.15625q0.390625 -0.171875 0.5625 -0.46875q0.171875 -0.296875 0.171875 -0.6875q0 -0.46875 -0.28125 -0.78125q-0.28125 -0.3125 -0.828125 -0.578125q-0.546875 -0.265625 -1.3125 -0.5625q-0.78125 -0.296875 -1.3125 -0.671875q-0.53125 -0.390625 -0.796875 -0.90625q-0.265625 -0.53125 -0.265625 -1.25q0 -0.71875 0.421875 -1.234375q0.4375 -0.53125 1.171875 -0.828125q0.734375 -0.296875 1.65625 -0.296875q0.6875 0 1.203125 0.109375q0.53125 0.09375 0.875 0.21875q0.359375 0.109375 0.546875 0.15625l0 1.984375l-0.953125 0l-0.328125 -1.1875q-0.078125 -0.125 -0.296875 -0.21875q-0.203125 -0.109375 -0.5 -0.171875q-0.28125 -0.0625 -0.59375 -0.0625q-0.5 -0.015625 -0.875 0.140625q-0.359375 0.140625 -0.5625 0.40625q-0.203125 0.265625 -0.203125 0.625q0 0.5625 0.296875 0.890625q0.296875 0.328125 0.765625 0.546875q0.484375 0.21875 1.015625 0.4375q0.515625 0.21875 1.015625 0.453125q0.5 0.234375 0.890625 0.546875q0.390625 0.3125 0.625 0.75q0.234375 0.4375 0.234375 1.046875q0 0.78125 -0.40625 1.359375q-0.40625 0.578125 -1.1875 0.90625q-0.765625 0.3125 -1.828125 0.3125z" fill-rule="nonzero"/><path fill="#000000" fill-opacity="0.0" d="m182.37239 265.4252l134.45671 0l0 38.771637l-134.45671 0z" fill-rule="evenodd"/><path fill="#000000" d="m213.09485 288.8633l2.734375 -3.5l-2.703125 -3.515625l-0.8125 -0.1875l0 -0.765625l3.953125 0l0 0.765625l-1.109375 0.1875l1.4375 2.0625l0.46875 0.6875l0.421875 -0.6875l1.53125 -2.0625l-1.171875 -0.1875l0 -0.765625l3.296875 0l0 0.765625l-0.90625 0.1875l-2.59375 3.3125l2.828125 3.71875l0.84375 0.125l0 0.78125l-4.03125 0l0 -0.78125l1.0625 -0.140625l-1.46875 -2.171875l-0.484375 -0.71875l-0.4375 0.703125l-1.53125 2.1875l1.34375 0.140625l0 0.78125l-3.640625 0l0 -0.78125l0.96875 -0.140625z" fill-rule="nonzero"/><path fill="#000000" d="m221.87997 295.7852l0 -0.53125l0.90625 -0.09375l0 -4.578125l-1.0 0l0 -0.5l1.0 -0.203125l0 -0.515625q0 -0.5 0.203125 -0.9375q0.203125 -0.453125 0.546875 -0.78125q0.34375 -0.328125 0.78125 -0.515625q0.4375 -0.1875 0.90625 -0.1875q0.265625 0 0.40625 0.03125q0.140625 0.03125 0.234375 0.0625l-0.015625 1.046875q-0.09375 -0.09375 -0.359375 -0.15625q-0.25 -0.0625 -0.609375 -0.0625q-0.34375 0 -0.5625 0.109375q-0.203125 0.109375 -0.3125 0.359375q-0.109375 0.25 -0.109375 0.6875l0 0.84375l1.484375 0l0 0.71875l-1.484375 0l0 4.59375l1.1875 0.078125l0 0.53125l-3.203125 0z" fill-rule="nonzero"/><path fill="#000000" d="m238.27318 281.8633l0 1.15625l-7.234375 0l0 -1.15625l7.234375 0zm0 4.40625l0 1.15625l-7.234375 0l0 -1.15625l7.234375 0zm13.370804 -2.21875l0 1.1875l-6.40625 0l0 -1.1875l6.40625 0zm2.5047607 4.8125l0 -9.265625q-0.21875 0.09375 -0.640625 0.21875q-0.40625 0.109375 -0.859375 0.21875q-0.453125 0.09375 -0.765625 0.140625l-0.171875 -0.9375q0.5625 -0.109375 1.15625 -0.34375q0.59375 -0.234375 1.125 -0.53125q0.53125 -0.296875 0.90625 -0.625l0.015625 0l0.953125 0.171875l0 10.9375l1.9375 0.140625l0 0.796875l-5.75 0l0 -0.796875l2.09375 -0.125zm4.328766 0.25q0.796875 -0.484375 1.609375 -1.171875q0.828125 -0.6875 1.578125 -1.5q0.765625 -0.828125 1.359375 -1.6875q0.59375 -0.859375 0.9375 -1.703125q0.34375 -0.859375 0.34375 -1.625q0 -0.84375 -0.296875 -1.359375q-0.28125 -0.53125 -0.8125 -0.78125q-0.53125 -0.265625 -1.21875 -0.265625q-0.71875 0 -1.25 0.25q-0.53125 0.25 -0.890625 0.578125q-0.359375 0.328125 -0.59375 0.59375l-0.71875 -0.640625q0.234375 -0.34375 0.578125 -0.6875q0.359375 -0.359375 0.84375 -0.65625q0.5 -0.3125 1.109375 -0.5q0.625 -0.203125 1.390625 -0.203125q1.140625 0 1.9375 0.4375q0.8125 0.421875 1.25 1.171875q0.4375 0.75 0.4375 1.703125q0 0.828125 -0.34375 1.703125q-0.328125 0.875 -0.90625 1.75q-0.578125 0.859375 -1.3125 1.671875q-0.734375 0.796875 -1.53125 1.484375q-0.796875 0.671875 -1.5625 1.171875l4.984375 -0.359375l0.546875 -1.359375l0.828125 0.171875l-0.40625 2.484375l-7.640625 0l-0.25 -0.671875zm13.569458 0.671875l0 -0.796875l0.96875 -0.125l0 -6.71875l-1.140625 -0.28125l0 -0.875l2.28125 -0.28125l0.28125 0.1875l0.09375 0.640625l-0.015625 0.515625q0.359375 -0.328125 0.921875 -0.640625q0.5625 -0.3125 1.1875 -0.515625q0.640625 -0.203125 1.171875 -0.203125q0.84375 0 1.359375 0.296875q0.53125 0.28125 0.796875 0.90625q0.3125 -0.28125 0.828125 -0.546875q0.53125 -0.28125 1.140625 -0.46875q0.625 -0.1875 1.203125 -0.1875q0.75 0 1.25 0.21875q0.5 0.21875 0.796875 0.671875q0.296875 0.4375 0.421875 1.125q0.125 0.6875 0.125 1.65625l0 4.5l1.140625 0.125l0 0.796875l-3.796875 0l0 -0.796875l0.96875 -0.125l0 -4.453125q0 -0.859375 -0.125 -1.4375q-0.125 -0.578125 -0.5 -0.859375q-0.375 -0.28125 -1.09375 -0.28125q-0.390625 0 -0.78125 0.125q-0.390625 0.109375 -0.75 0.296875q-0.34375 0.1875 -0.59375 0.375q0.046875 0.234375 0.078125 0.515625q0.03125 0.265625 0.046875 0.578125q0.015625 0.3125 0.015625 0.65625l0 4.484375l1.125 0.125l0 0.796875l-3.875 0l0 -0.796875l1.046875 -0.125l0 -4.484375q0 -0.875 -0.109375 -1.4375q-0.109375 -0.5625 -0.453125 -0.828125q-0.328125 -0.265625 -1.015625 -0.265625q-0.609375 0 -1.265625 0.3125q-0.640625 0.296875 -1.0625 0.625l0 6.078125l1.046875 0.125l0 0.796875l-3.71875 0z" fill-rule="nonzero"/><path fill="#000000" fill-opacity="0.0" d="m409.0551 142.17323l141.88977 0l0 38.771652l-141.88977 0z" fill-rule="evenodd"/><path fill="#000000" d="m460.2383 166.70511q-0.875 0 -1.34375 -0.40625q-0.46875 -0.40625 -0.46875 -1.453125l0 -6.125l-1.15625 0l0 -0.75q0.171875 -0.03125 0.359375 -0.078125q0.1875 -0.0625 0.359375 -0.109375q0.171875 -0.0625 0.25 -0.109375q0.09375 -0.078125 0.15625 -0.15625q0.0625 -0.078125 0.109375 -0.171875q0.0625 -0.109375 0.125 -0.265625q0.078125 -0.203125 0.171875 -0.546875q0.09375 -0.34375 0.1875 -0.671875q0.09375 -0.34375 0.125 -0.515625l0.953125 0l0.03125 2.296875l2.65625 0l0 1.078125l-2.65625 0l0 4.90625q0 0.859375 0.0625 1.265625q0.078125 0.390625 0.28125 0.5q0.203125 0.09375 0.609375 0.09375q0.453125 0 0.96875 -0.109375q0.515625 -0.125 0.78125 -0.25l0.25 0.71875q-0.25 0.203125 -0.703125 0.40625q-0.453125 0.1875 -1.015625 0.3125q-0.546875 0.140625 -1.09375 0.140625zm15.75061 -8.09375l0 1.15625l-7.234375 0l0 -1.15625l7.234375 0zm0 4.40625l0 1.15625l-7.234375 0l0 -1.15625l7.234375 0zm11.370789 3.515625l0 -2.4375l-5.015625 0l-0.40625 -0.71875q0.46875 -0.8125 0.921875 -1.6875q0.46875 -0.890625 0.890625 -1.796875q0.421875 -0.921875 0.828125 -1.84375q0.40625 -0.921875 0.78125 -1.78125q0.390625 -0.875 0.75 -1.65625l0.46875 0l1.296875 0.671875l-3.671875 6.875l-0.734375 1.0625l3.890625 -0.25l0.0625 -3.15625l1.421875 -0.109375l0 3.1875l2.1875 -0.109375l0 1.3125l-2.1875 0l0 2.4375l-1.484375 0zm11.569702 0.171875q-0.609375 0 -1.21875 -0.125q-0.59375 -0.109375 -1.09375 -0.265625q-0.484375 -0.15625 -0.734375 -0.265625l0 -2.046875l1.046875 0l0.28125 1.25q0.109375 0.140625 0.375 0.296875q0.265625 0.140625 0.625 0.234375q0.375 0.09375 0.765625 0.09375q0.640625 0 1.03125 -0.15625q0.390625 -0.171875 0.5625 -0.46875q0.171875 -0.296875 0.171875 -0.6875q0 -0.46875 -0.28125 -0.78125q-0.28125 -0.3125 -0.828125 -0.578125q-0.546875 -0.265625 -1.3125 -0.5625q-0.78125 -0.296875 -1.3125 -0.671875q-0.53125 -0.390625 -0.796875 -0.90625q-0.265625 -0.53125 -0.265625 -1.25q0 -0.71875 0.421875 -1.234375q0.4375 -0.53125 1.171875 -0.828125q0.734375 -0.296875 1.65625 -0.296875q0.6875 0 1.203125 0.109375q0.53125 0.09375 0.875 0.21875q0.359375 0.109375 0.546875 0.15625l0 1.984375l-0.953125 0l-0.328125 -1.1875q-0.078125 -0.125 -0.296875 -0.21875q-0.203125 -0.109375 -0.5 -0.171875q-0.28125 -0.0625 -0.59375 -0.0625q-0.5 -0.015625 -0.875 0.140625q-0.359375 0.140625 -0.5625 0.40625q-0.203125 0.265625 -0.203125 0.625q0 0.5625 0.296875 0.890625q0.296875 0.328125 0.765625 0.546875q0.484375 0.21875 1.015625 0.4375q0.515625 0.21875 1.015625 0.453125q0.5 0.234375 0.890625 0.546875q0.390625 0.3125 0.625 0.75q0.234375 0.4375 0.234375 1.046875q0 0.78125 -0.40625 1.359375q-0.40625 0.578125 -1.1875 0.90625q-0.765625 0.3125 -1.828125 0.3125z" fill-rule="nonzero"/><path fill="#000000" fill-opacity="0.0" d="m250.19948 324.2021l479.4646 0" fill-rule="evenodd"/><path stroke="#000000" stroke-width="2.0" stroke-linejoin="round" stroke-linecap="butt" d="m262.19946 324.2021l467.4646 0" fill-rule="evenodd"/><path fill="#000000" stroke="#000000" stroke-width="2.0" stroke-linecap="butt" d="m262.19946 320.89862l-9.076187 3.3034668l9.076187 3.3034668z" fill-rule="evenodd"/><path fill="#000000" fill-opacity="0.0" d="m335.9987 324.2021l287.99997 0l0 38.771667l-287.99997 0z" fill-rule="evenodd"/><path fill="#000000" d="m439.6185 348.5621l-0.28125 -0.40625l4.625 -11.578125l0.671875 0l4.8125 11.578125l-0.265625 0.40625l-9.5625 0zm1.171875 -0.796875l6.609375 0l-3.125 -8.1875l-0.171875 -0.46875l-0.1875 0.5l-3.125 8.15625zm11.521698 -0.125l2.734375 -3.5l-2.703125 -3.515625l-0.8125 -0.1875l0 -0.765625l3.953125 0l0 0.765625l-1.109375 0.1875l1.4375 2.0625l0.46875 0.6875l0.421875 -0.6875l1.53125 -2.0625l-1.171875 -0.1875l0 -0.765625l3.296875 0l0 0.765625l-0.90625 0.1875l-2.59375 3.3125l2.828125 3.71875l0.84375 0.125l0 0.78125l-4.03125 0l0 -0.78125l1.0625 -0.140625l-1.46875 -2.171875l-0.484375 -0.71875l-0.4375 0.703125l-1.53125 2.1875l1.34375 0.140625l0 0.78125l-3.640625 0l0 -0.78125l0.96875 -0.140625zm21.139587 -7.0l0 1.15625l-7.234375 0l0 -1.15625l7.234375 0zm0 4.40625l0 1.15625l-7.234375 0l0 -1.15625l7.234375 0zm13.370789 -2.21875l0 1.1875l-6.40625 0l0 -1.1875l6.40625 0zm2.5047607 4.8125l0 -9.265625q-0.21875 0.09375 -0.640625 0.21875q-0.40625 0.109375 -0.859375 0.21875q-0.453125 0.09375 -0.765625 0.140625l-0.171875 -0.9375q0.5625 -0.109375 1.15625 -0.34375q0.59375 -0.234375 1.125 -0.53125q0.53125 -0.296875 0.90625 -0.625l0.015625 0l0.953125 0.171875l0 10.9375l1.9375 0.140625l0 0.796875l-5.75 0l0 -0.796875l2.09375 -0.125zm4.3287964 0.25q0.796875 -0.484375 1.609375 -1.171875q0.828125 -0.6875 1.578125 -1.5q0.765625 -0.828125 1.359375 -1.6875q0.59375 -0.859375 0.9375 -1.703125q0.34375 -0.859375 0.34375 -1.625q0 -0.84375 -0.296875 -1.359375q-0.28125 -0.53125 -0.8125 -0.78125q-0.53125 -0.265625 -1.21875 -0.265625q-0.71875 0 -1.25 0.25q-0.53125 0.25 -0.890625 0.578125q-0.359375 0.328125 -0.59375 0.59375l-0.71875 -0.640625q0.234375 -0.34375 0.578125 -0.6875q0.359375 -0.359375 0.84375 -0.65625q0.5 -0.3125 1.109375 -0.5q0.625 -0.203125 1.390625 -0.203125q1.140625 0 1.9375 0.4375q0.8125 0.421875 1.25 1.171875q0.4375 0.75 0.4375 1.703125q0 0.828125 -0.34375 1.703125q-0.328125 0.875 -0.90625 1.75q-0.578125 0.859375 -1.3125 1.671875q-0.734375 0.796875 -1.53125 1.484375q-0.796875 0.671875 -1.5625 1.171875l4.984375 -0.359375l0.546875 -1.359375l0.828125 0.171875l-0.40625 2.484375l-7.640625 0l-0.25 -0.671875zm13.5694275 0.671875l0 -0.796875l0.96875 -0.125l0 -6.71875l-1.140625 -0.28125l0 -0.875l2.28125 -0.28125l0.28125 0.1875l0.09375 0.640625l-0.015625 0.515625q0.359375 -0.328125 0.921875 -0.640625q0.5625 -0.3125 1.1875 -0.515625q0.6405945 -0.203125 1.1718445 -0.203125q0.84375 0 1.359375 0.296875q0.53125 0.28125 0.796875 0.90625q0.3125 -0.28125 0.828125 -0.546875q0.53125 -0.28125 1.140625 -0.46875q0.625 -0.1875 1.203125 -0.1875q0.75 0 1.25 0.21875q0.5 0.21875 0.796875 0.671875q0.296875 0.4375 0.421875 1.125q0.125 0.6875 0.125 1.65625l0 4.5l1.140625 0.125l0 0.796875l-3.796875 0l0 -0.796875l0.96875 -0.125l0 -4.453125q0 -0.859375 -0.125 -1.4375q-0.125 -0.578125 -0.5 -0.859375q-0.375 -0.28125 -1.09375 -0.28125q-0.390625 0 -0.78125 0.125q-0.390625 0.109375 -0.75 0.296875q-0.34375 0.1875 -0.59375 0.375q0.046875 0.234375 0.078125 0.515625q0.03125 0.265625 0.046875 0.578125q0.015625 0.3125 0.015625 0.65625l0 4.484375l1.125 0.125l0 0.796875l-3.875 0l0 -0.796875l1.046875 -0.125l0 -4.484375q0 -0.875 -0.109375 -1.4375q-0.109375 -0.5625 -0.453125 -0.828125q-0.328125 -0.265625 -1.015625 -0.265625q-0.6093445 0 -1.2655945 0.3125q-0.640625 0.296875 -1.0625 0.625l0 6.078125l1.046875 0.125l0 0.796875l-3.71875 0z" fill-rule="nonzero"/></g></svg>